{"accessors" : [{"bufferView" : 0, "byteOffset" : 0, "componentType" : 5123, "count" : 744, "type" : "SCALAR", "max" : [743], "min" : [0]}, {"bufferView" : 1, "byteOffset" : 0, "componentType" : 5126, "count" : 744, "type" : "VEC3", "max" : [1, 43.11499786376953, 1], "min" : [-1, -1, -1], "name" : "POSITION"}, {"bufferView" : 1, "byteOffset" : 12, "componentType" : 5126, "count" : 744, "type" : "VEC3", "max" : [0.9951891899108887, 0.9951891899108887, 1.0000044107437134], "min" : [-0.9951891899108887, -0.9951891303062439, -1.0000044107437134], "name" : "NORMAL"}, {"bufferView" : 0, "byteOffset" : 1488, "componentType" : 5123, "count" : 744, "type" : "SCALAR", "max" : [743], "min" : [0]}, {"bufferView" : 2, "byteOffset" : 0, "componentType" : 5126, "count" : 744, "type" : "VEC3", "max" : [1, 43.11499786376953, 1], "min" : [-1, -1, -1], "name" : "POSITION"}, {"bufferView" : 2, "byteOffset" : 12, "componentType" : 5126, "count" : 744, "type" : "VEC3", "max" : [0.9951891303062439, 0.9951891899108887, 1.0000044107437134], "min" : [-0.9951891899108887, -0.9951891303062439, -1.0000044107437134], "name" : "NORMAL"}, {"bufferView" : 0, "byteOffset" : 2976, "componentType" : 5123, "count" : 564, "type" : "SCALAR", "max" : [563], "min" : [0]}, {"bufferView" : 3, "byteOffset" : 0, "componentType" : 5126, "count" : 564, "type" : "VEC3", "max" : [1, 1, 1], "min" : [-1, -1, -1], "name" : "POSITION"}, {"bufferView" : 3, "byteOffset" : 12, "componentType" : 5126, "count" : 564, "type" : "VEC3", "max" : [0.9830693602561951, 0.9830693602561951, 0.9830693602561951], "min" : [-0.9830693602561951, -0.9830693602561951, -0.9830693602561951], "name" : "NORMAL"}, {"bufferView" : 0, "byteOffset" : 4104, "componentType" : 5123, "count" : 564, "type" : "SCALAR", "max" : [563], "min" : [0]}, {"bufferView" : 4, "byteOffset" : 0, "componentType" : 5126, "count" : 564, "type" : "VEC3", "max" : [1, 1, 1], "min" : [-1, -1, -1], "name" : "POSITION"}, {"bufferView" : 4, "byteOffset" : 12, "componentType" : 5126, "count" : 564, "type" : "VEC3", "max" : [0.9830693602561951, 0.9830693602561951, 0.9830693602561951], "min" : [-0.9830693602561951, -0.9830693602561951, -0.9830693602561951], "name" : "NORMAL"}, {"bufferView" : 0, "byteOffset" : 5232, "componentType" : 5123, "count" : 564, "type" : "SCALAR", "max" : [563], "min" : [0]}, {"bufferView" : 5, "byteOffset" : 0, "componentType" : 5126, "count" : 564, "type" : "VEC3", "max" : [1, 1, 1], "min" : [-1, -1, -1], "name" : "POSITION"}, {"bufferView" : 5, "byteOffset" : 12, "componentType" : 5126, "count" : 564, "type" : "VEC3", "max" : [0.9830693602561951, 0.9830693602561951, 0.9830693602561951], "min" : [-0.9830693602561951, -0.9830693602561951, -0.9830693602561951], "name" : "NORMAL"}, {"bufferView" : 0, "byteOffset" : 6360, "componentType" : 5123, "count" : 324, "type" : "SCALAR", "max" : [323], "min" : [0]}, {"bufferView" : 6, "byteOffset" : 0, "componentType" : 5126, "count" : 324, "type" : "VEC3", "max" : [1, 1, 1], "min" : [-1, -1, -1], "name" : "POSITION"}, {"bufferView" : 6, "byteOffset" : 12, "componentType" : 5126, "count" : 324, "type" : "VEC3", "max" : [0.9672995805740356, 0.9672995805740356, 0.9672995805740356], "min" : [-0.9672995805740356, -0.9672995805740356, -0.9672995805740356], "name" : "NORMAL"}, {"bufferView" : 0, "byteOffset" : 7008, "componentType" : 5123, "count" : 324, "type" : "SCALAR", "max" : [323], "min" : [0]}, {"bufferView" : 7, "byteOffset" : 0, "componentType" : 5126, "count" : 324, "type" : "VEC3", "max" : [1, 1, 1], "min" : [-1, -1, -1], "name" : "POSITION"}, {"bufferView" : 7, "byteOffset" : 12, "componentType" : 5126, "count" : 324, "type" : "VEC3", "max" : [0.9672995805740356, 0.9672995805740356, 0.9672995805740356], "min" : [-0.9672995805740356, -0.9672995805740356, -0.9672995805740356], "name" : "NORMAL"}, {"bufferView" : 0, "byteOffset" : 7656, "componentType" : 5123, "count" : 324, "type" : "SCALAR", "max" : [323], "min" : [0]}, {"bufferView" : 8, "byteOffset" : 0, "componentType" : 5126, "count" : 324, "type" : "VEC3", "max" : [1, 1, 1], "min" : [-1, -1, -1], "name" : "POSITION"}, {"bufferView" : 8, "byteOffset" : 12, "componentType" : 5126, "count" : 324, "type" : "VEC3", "max" : [0.9672995805740356, 0.9672995805740356, 0.9672995805740356], "min" : [-0.9672995805740356, -0.9672995805740356, -0.9672995805740356], "name" : "NORMAL"}, {"bufferView" : 0, "byteOffset" : 8304, "componentType" : 5123, "count" : 132, "type" : "SCALAR", "max" : [131], "min" : [0]}, {"bufferView" : 9, "byteOffset" : 0, "componentType" : 5126, "count" : 132, "type" : "VEC3", "max" : [1, 1, 1], "min" : [-1, -1, -1], "name" : "POSITION"}, {"bufferView" : 9, "byteOffset" : 12, "componentType" : 5126, "count" : 132, "type" : "VEC3", "max" : [0.8755955100059509, 0.8755955100059509, 0.8755955100059509], "min" : [-0.8755955100059509, -0.8755955100059509, -0.8755955100059509], "name" : "NORMAL"}, {"bufferView" : 0, "byteOffset" : 8568, "componentType" : 5123, "count" : 612, "type" : "SCALAR", "max" : [611], "min" : [0]}, {"bufferView" : 10, "byteOffset" : 0, "componentType" : 5126, "count" : 612, "type" : "VEC3", "max" : [1, 1, 1], "min" : [-1, -1, -1], "name" : "POSITION"}, {"bufferView" : 10, "byteOffset" : 12, "componentType" : 5126, "count" : 612, "type" : "VEC3", "max" : [1.0000044107437134, 1.0000042915344238, 1.0000044107437134], "min" : [-1.0000044107437134, -1.0000042915344238, -1.0000044107437134], "name" : "NORMAL"}, {"bufferView" : 0, "byteOffset" : 9792, "componentType" : 5123, "count" : 132, "type" : "SCALAR", "max" : [131], "min" : [0]}, {"bufferView" : 11, "byteOffset" : 0, "componentType" : 5126, "count" : 132, "type" : "VEC3", "max" : [1, 1, 1], "min" : [-1, -1, -1], "name" : "POSITION"}, {"bufferView" : 11, "byteOffset" : 12, "componentType" : 5126, "count" : 132, "type" : "VEC3", "max" : [0.8755955100059509, 0.8755955100059509, 0.8755955100059509], "min" : [-0.8755955100059509, -0.8755955100059509, -0.8755955100059509], "name" : "NORMAL"}, {"bufferView" : 0, "byteOffset" : 10056, "componentType" : 5123, "count" : 168, "type" : "SCALAR", "max" : [167], "min" : [0]}, {"bufferView" : 12, "byteOffset" : 0, "componentType" : 5126, "count" : 168, "type" : "VEC3", "max" : [1.0000003576278687, 0.4151040017604828, 0.15341432392597198], "min" : [-1.0000003576278687, -0.4250691533088684, 0.002047136425971985], "name" : "POSITION"}, {"bufferView" : 12, "byteOffset" : 12, "componentType" : 5126, "count" : 168, "type" : "VEC3", "max" : [1.0000044107437134, 1.0000044107437134, 1.0000044107437134], "min" : [-1.0000044107437134, -1.0000044107437134, -1.0000044107437134], "name" : "NORMAL"}], "asset" : {"generator" : "Aspose.3D 22.1", "version" : "2.0"}, "buffers" : [{"uri" : "data:application/octet-stream;base64,", "byteLength" : 135148}], "bufferViews" : [{"buffer" : 0, "byteOffset" : 0, "byteLength" : 10392, "target" : 34963}, {"buffer" : 0, "byteOffset" : 10396, "byteLength" : 17856, "byteStride" : 24, "target" : 34962}, {"buffer" : 0, "byteOffset" : 28256, "byteLength" : 17856, "byteStride" : 24, "target" : 34962}, {"buffer" : 0, "byteOffset" : 46116, "byteLength" : 13536, "byteStride" : 24, "target" : 34962}, {"buffer" : 0, "byteOffset" : 59656, "byteLength" : 13536, "byteStride" : 24, "target" : 34962}, {"buffer" : 0, "byteOffset" : 73196, "byteLength" : 13536, "byteStride" : 24, "target" : 34962}, {"buffer" : 0, "byteOffset" : 86736, "byteLength" : 7776, "byteStride" : 24, "target" : 34962}, {"buffer" : 0, "byteOffset" : 94516, "byteLength" : 7776, "byteStride" : 24, "target" : 34962}, {"buffer" : 0, "byteOffset" : 102296, "byteLength" : 7776, "byteStride" : 24, "target" : 34962}, {"buffer" : 0, "byteOffset" : 110076, "byteLength" : 3168, "byteStride" : 24, "target" : 34962}, {"buffer" : 0, "byteOffset" : 113248, "byteLength" : 14688, "byteStride" : 24, "target" : 34962}, {"buffer" : 0, "byteOffset" : 127940, "byteLength" : 3168, "byteStride" : 24, "target" : 34962}, {"buffer" : 0, "byteOffset" : 131112, "byteLength" : 4032, "byteStride" : 24, "target" : 34962}], "cameras" : [{"perspective" : {"aspectRatio" : 1.777777777777778, "yfov" : 0.8575560450553893, "zfar" : 10000, "znear" : 10.000000149011612}, "type" : "perspective", "name" : "Camera"}], "materials" : [{"name" : "", "pbrMetallicRoughness" : {"baseColorFactor" : [0.800000011920929, 0.800000011920929, 0.800000011920929, 1], "metallicFactor" : 0, "roughnessFactor" : 0}, "emissiveFactor" : [0.800000011920929, 0.800000011920929, 0.800000011920929], "alphaMode" : "OPAQUE", "doubleSided" : false}], "meshes" : [{"primitives" : [{"attributes" : {"POSITION" : 1, "NORMAL" : 2}, "indices" : 0, "mode" : 4}], "name" : "Cylinder.001"}, {"primitives" : [{"attributes" : {"POSITION" : 4, "NORMAL" : 5}, "indices" : 3, "mode" : 4}], "name" : "Cylinder"}, {"primitives" : [{"attributes" : {"POSITION" : 7, "NORMAL" : 8}, "indices" : 6, "mode" : 4}], "name" : "Cube.014"}, {"primitives" : [{"attributes" : {"POSITION" : 10, "NORMAL" : 11}, "indices" : 9, "mode" : 4}], "name" : "Cube.013"}, {"primitives" : [{"attributes" : {"POSITION" : 13, "NORMAL" : 14}, "indices" : 12, "mode" : 4}], "name" : "Cube.012"}, {"primitives" : [{"attributes" : {"POSITION" : 16, "NORMAL" : 17}, "indices" : 15, "mode" : 4}], "name" : "Cube.011"}, {"primitives" : [{"attributes" : {"POSITION" : 19, "NORMAL" : 20}, "indices" : 18, "mode" : 4}], "name" : "Cube.010"}, {"primitives" : [{"attributes" : {"POSITION" : 22, "NORMAL" : 23}, "indices" : 21, "mode" : 4}], "name" : "Cube.009"}, {"primitives" : [{"attributes" : {"POSITION" : 25, "NORMAL" : 26}, "indices" : 24, "mode" : 4}], "name" : "Cube.005"}, {"primitives" : [{"attributes" : {"POSITION" : 28, "NORMAL" : 29}, "indices" : 27, "mode" : 4}], "name" : "Cube.004"}, {"primitives" : [{"attributes" : {"POSITION" : 31, "NORMAL" : 32}, "indices" : 30, "mode" : 4}], "name" : "Cube.001"}, {"primitives" : [{"attributes" : {"POSITION" : 34, "NORMAL" : 35}, "indices" : 33, "material" : 0, "mode" : 4}], "name" : "Cube"}], "nodes" : [{"matrix" : [1.8300370999856306, 0.32268496307948147, 3.496930533032039E-08, 0, 8.919584139430157E-08, -6.958575876365996E-07, 1.753282785415509, 0, 1.592528075363763, -9.03167421522031, -3.665584333669761E-06, 0, 93.23633575439453, -7.288431167602539, -37.229331970214844, 1], "mesh" : 0, "name" : "Cylinder.001"}, {"matrix" : [1.8300370999856308, -0.32268496307948147, 1.943130686016758E-08, 0, 5.025381482842889E-09, -7.707809195523321E-08, -1.7532827854156476, 0, 1.592528075363825, 9.031674215221035, -3.924872589233112E-07, 0, -93.1534194946289, -7.288431167602539, 36.49074935913086, 1], "mesh" : 1, "name" : "Cylinder"}, {"matrix" : [29.547700881958008, 0, 0, 0, 0, -0.6486485016818447, -7.023389880529357, 0, 0, 17.44891293607241, -1.6115026254397924, 0, 0.32854872941970825, 40.58941650390625, -15.805922508239746, 1], "mesh" : 2, "name" : "Cube.009"}, {"matrix" : [26.11937141418457, 0, 0, 0, 0, -0.6486485016818447, -7.023389880529357, 0, 0, 17.44891293607241, -1.6115026254397924, 0, 55.575050354003906, 40.58941650390625, -15.805922508239746, 1], "mesh" : 3, "name" : "Cube.008"}, {"matrix" : [26.11937141418457, 0, 0, 0, 0, -0.6486485016818447, -7.023389880529357, 0, 0, 17.44891293607241, -1.6115026254397924, 0, -55.25116729736328, 40.58941650390625, -15.805922508239746, 1], "mesh" : 4, "name" : "Cube.007"}, {"matrix" : [27.68937110900869, 2.420681798904367E-06, 1.8323288764126398E-22, 0, 4.756568866343939E-13, -5.440880356677039E-06, -33.395885467528856, 0, 3.663750297668867E-07, -4.1908416748046164, 6.827747747438879E-07, 0, 0.051445282995700836, 20.373504638671875, 10.220243453979492, 1], "mesh" : 5, "name" : "Cube.005"}, {"matrix" : [26.933839797973537, 2.354631151313815E-06, 1.7823320081994356E-22, 0, 4.756568866343939E-13, -5.440880356677039E-06, -33.395885467528856, 0, 3.663750297668867E-07, -4.1908416748046164, 6.827747747438879E-07, 0, 55.286563873291016, 20.178983688354492, 10.284139633178711, 1], "mesh" : 6, "name" : "Cube.006"}, {"matrix" : [26.933839797973537, 2.354631151313815E-06, 1.7823320081994356E-22, 0, 4.756568866343939E-13, -5.440880356677039E-06, -33.395885467528856, 0, 3.663750297668867E-07, -4.1908416748046164, 6.827747747438879E-07, 0, -55.37167739868164, 20.178983688354492, 10.284139633178711, 1], "mesh" : 7, "name" : "Cube.002"}, {"matrix" : [9.027113914489746, 0, 0, 0, 0, -6.8559995701565325E-06, -42.0818252563471, 0, 0, 18.139883041381598, -2.955362073218153E-06, 0, -90.89879608154297, 22.86605453491211, 0.7639168500900269, 1], "mesh" : 8, "name" : "Cube.003"}, {"matrix" : [1.7576439734159155E-06, 5.011054856890321E-16, -9.027113914489576, 0, -82.37949371337625, -1.3421323102030718E-05, -1.603987964162519E-05, 0, -3.417744217166552E-06, 20.977964401244844, -6.661002659176355E-13, 0, 0.2647538483142853, 26.89568328857422, -32.24396514892578, 1], "mesh" : 9, "name" : "Cube.004"}, {"matrix" : [9.027113914489746, 0, 0, 0, 0, -6.8559995701565325E-06, -42.0818252563471, 0, 0, 18.139883041381598, -2.955362073218153E-06, 0, 91.1607437133789, 22.86605453491211, 0.7639168500900269, 1], "mesh" : 10, "name" : "Cube.001"}, {"matrix" : [100, 0, 0, 0, 0, -1.6292067961387602E-05, -99.99999999999868, 0, 0, 99.99999999999868, -1.6292067961387602E-05, 0, 0, 0, 0, 1], "mesh" : 11, "name" : "Cube"}, {"camera" : 0, "matrix" : [-82.14796772716915, 16.99345484410302, -54.43283834926675, 0, 5.3970248508122305, 97.34486836325291, 22.245229870236027, 0, 56.76779926836204, 15.336248101797784, -80.88395968613436, 0, 748.1131591796875, 534.3665161132812, 650.7639770507812, 1], "name" : "Camera"}], "scene" : 0, "scenes" : [{"nodes" : [0, 1, 2, 3, 4, 5, 6, 7, 8, 9, 10, 11, 12]}]}